<mxfile host="app.diagrams.net" agent="Mozilla/5.0 (Windows NT 10.0; Win64; x64) AppleWebKit/537.36 (KHTML, like Gecko) Chrome/134.0.0.0 Safari/537.36" version="26.2.4">
  <diagram name="Page-1" id="Q-akTz2TxdO1c06iq3hH">
    <mxGraphModel dx="1790" dy="1201" grid="0" gridSize="10" guides="1" tooltips="1" connect="1" arrows="1" fold="1" page="0" pageScale="1" pageWidth="1654" pageHeight="1169" background="none" math="0" shadow="0">
      <root>
        <mxCell id="0" />
        <mxCell id="1" parent="0" />
        <mxCell id="iAl7js6x0Z8hQNSkngYc-1" value="" style="points=[];aspect=fixed;html=1;align=center;shadow=0;dashed=0;fillColor=#FF6A00;strokeColor=none;shape=mxgraph.alibaba_cloud.user_feedback_02;" vertex="1" parent="1">
          <mxGeometry x="210" y="-31" width="43.199999999999996" height="50.099999999999994" as="geometry" />
        </mxCell>
        <mxCell id="iAl7js6x0Z8hQNSkngYc-6" style="edgeStyle=orthogonalEdgeStyle;rounded=0;orthogonalLoop=1;jettySize=auto;html=1;endArrow=none;startFill=0;" edge="1" parent="1" source="iAl7js6x0Z8hQNSkngYc-2" target="iAl7js6x0Z8hQNSkngYc-5">
          <mxGeometry relative="1" as="geometry">
            <Array as="points">
              <mxPoint x="14" y="190" />
            </Array>
          </mxGeometry>
        </mxCell>
        <mxCell id="iAl7js6x0Z8hQNSkngYc-7" value="Edge Caching" style="edgeLabel;html=1;align=center;verticalAlign=middle;resizable=0;points=[];" vertex="1" connectable="0" parent="iAl7js6x0Z8hQNSkngYc-6">
          <mxGeometry x="0.0877" y="-1" relative="1" as="geometry">
            <mxPoint x="9" y="-1" as="offset" />
          </mxGeometry>
        </mxCell>
        <mxCell id="iAl7js6x0Z8hQNSkngYc-2" value="" style="outlineConnect=0;dashed=0;verticalLabelPosition=bottom;verticalAlign=top;align=center;html=1;shape=mxgraph.aws3.edge_location;fillColor=#F58536;gradientColor=none;" vertex="1" parent="1">
          <mxGeometry x="-15" y="36" width="58.5" height="64.5" as="geometry" />
        </mxCell>
        <mxCell id="iAl7js6x0Z8hQNSkngYc-3" style="edgeStyle=orthogonalEdgeStyle;rounded=0;orthogonalLoop=1;jettySize=auto;html=1;entryX=0.5;entryY=0;entryDx=0;entryDy=0;entryPerimeter=0;" edge="1" parent="1" source="iAl7js6x0Z8hQNSkngYc-1" target="iAl7js6x0Z8hQNSkngYc-2">
          <mxGeometry relative="1" as="geometry" />
        </mxCell>
        <mxCell id="iAl7js6x0Z8hQNSkngYc-4" value="Edge Location" style="text;html=1;align=center;verticalAlign=middle;resizable=0;points=[];autosize=1;strokeColor=none;fillColor=none;" vertex="1" parent="1">
          <mxGeometry x="49" y="70" width="95" height="26" as="geometry" />
        </mxCell>
        <mxCell id="iAl7js6x0Z8hQNSkngYc-5" value="" style="outlineConnect=0;dashed=0;verticalLabelPosition=bottom;verticalAlign=top;align=center;html=1;shape=mxgraph.aws3.cloudfront;fillColor=#F58536;gradientColor=none;" vertex="1" parent="1">
          <mxGeometry x="176.7" y="143" width="76.5" height="93" as="geometry" />
        </mxCell>
        <mxCell id="iAl7js6x0Z8hQNSkngYc-9" value="" style="outlineConnect=0;dashed=0;verticalLabelPosition=bottom;verticalAlign=top;align=center;html=1;shape=mxgraph.aws3.bucket;fillColor=#E05243;gradientColor=none;" vertex="1" parent="1">
          <mxGeometry x="432" y="158.75" width="60" height="61.5" as="geometry" />
        </mxCell>
        <mxCell id="iAl7js6x0Z8hQNSkngYc-10" value="S3 Bucket" style="text;html=1;align=center;verticalAlign=middle;resizable=0;points=[];autosize=1;strokeColor=none;fillColor=none;" vertex="1" parent="1">
          <mxGeometry x="425.5" y="124" width="73" height="26" as="geometry" />
        </mxCell>
        <mxCell id="iAl7js6x0Z8hQNSkngYc-11" style="edgeStyle=orthogonalEdgeStyle;rounded=0;orthogonalLoop=1;jettySize=auto;html=1;entryX=0.06;entryY=0.5;entryDx=0;entryDy=0;entryPerimeter=0;endArrow=classic;startFill=0;endFill=1;" edge="1" parent="1" source="iAl7js6x0Z8hQNSkngYc-5" target="iAl7js6x0Z8hQNSkngYc-9">
          <mxGeometry relative="1" as="geometry" />
        </mxCell>
        <mxCell id="iAl7js6x0Z8hQNSkngYc-12" value="Static Content" style="edgeLabel;html=1;align=center;verticalAlign=middle;resizable=0;points=[];" vertex="1" connectable="0" parent="iAl7js6x0Z8hQNSkngYc-11">
          <mxGeometry x="-0.3246" y="3" relative="1" as="geometry">
            <mxPoint x="27" y="3" as="offset" />
          </mxGeometry>
        </mxCell>
        <mxCell id="iAl7js6x0Z8hQNSkngYc-33" style="edgeStyle=orthogonalEdgeStyle;rounded=0;orthogonalLoop=1;jettySize=auto;html=1;entryX=0.5;entryY=0;entryDx=0;entryDy=0;" edge="1" parent="1" source="iAl7js6x0Z8hQNSkngYc-13" target="iAl7js6x0Z8hQNSkngYc-23">
          <mxGeometry relative="1" as="geometry" />
        </mxCell>
        <mxCell id="iAl7js6x0Z8hQNSkngYc-34" style="edgeStyle=orthogonalEdgeStyle;rounded=0;orthogonalLoop=1;jettySize=auto;html=1;entryX=0.5;entryY=0;entryDx=0;entryDy=0;" edge="1" parent="1" source="iAl7js6x0Z8hQNSkngYc-13" target="iAl7js6x0Z8hQNSkngYc-32">
          <mxGeometry relative="1" as="geometry" />
        </mxCell>
        <mxCell id="iAl7js6x0Z8hQNSkngYc-13" value="" style="outlineConnect=0;dashed=0;verticalLabelPosition=bottom;verticalAlign=top;align=center;html=1;shape=mxgraph.aws3.classic_load_balancer;fillColor=#F58536;gradientColor=none;" vertex="1" parent="1">
          <mxGeometry x="180.45" y="327" width="69" height="72" as="geometry" />
        </mxCell>
        <mxCell id="iAl7js6x0Z8hQNSkngYc-14" value="Elastic Load Balancing" style="text;html=1;align=center;verticalAlign=middle;resizable=0;points=[];autosize=1;strokeColor=none;fillColor=none;" vertex="1" parent="1">
          <mxGeometry x="145.45" y="404" width="139" height="26" as="geometry" />
        </mxCell>
        <mxCell id="iAl7js6x0Z8hQNSkngYc-15" value="" style="points=[];aspect=fixed;html=1;align=center;shadow=0;dashed=0;fillColor=#FF6A00;strokeColor=none;shape=mxgraph.alibaba_cloud.waf_web_application_firewall;" vertex="1" parent="1">
          <mxGeometry x="-15" y="479" width="81.99" height="72" as="geometry" />
        </mxCell>
        <mxCell id="iAl7js6x0Z8hQNSkngYc-16" value="" style="outlineConnect=0;dashed=0;verticalLabelPosition=bottom;verticalAlign=top;align=center;html=1;shape=mxgraph.aws3.ec2;fillColor=#F58534;gradientColor=none;" vertex="1" parent="1">
          <mxGeometry x="-6.009999999999994" y="633" width="64" height="69" as="geometry" />
        </mxCell>
        <mxCell id="iAl7js6x0Z8hQNSkngYc-17" value="" style="outlineConnect=0;dashed=0;verticalLabelPosition=bottom;verticalAlign=top;align=center;html=1;shape=mxgraph.aws3.rds;fillColor=#2E73B8;gradientColor=none;" vertex="1" parent="1">
          <mxGeometry x="-7.01" y="781" width="66" height="77" as="geometry" />
        </mxCell>
        <mxCell id="iAl7js6x0Z8hQNSkngYc-18" value="Web Application &lt;br&gt;Firewall" style="text;html=1;align=center;verticalAlign=middle;resizable=0;points=[];autosize=1;strokeColor=none;fillColor=none;" vertex="1" parent="1">
          <mxGeometry x="66.99" y="494.5" width="104" height="41" as="geometry" />
        </mxCell>
        <mxCell id="iAl7js6x0Z8hQNSkngYc-19" value="EC2" style="text;html=1;align=center;verticalAlign=middle;resizable=0;points=[];autosize=1;strokeColor=none;fillColor=none;" vertex="1" parent="1">
          <mxGeometry x="66.99" y="654.5" width="41" height="26" as="geometry" />
        </mxCell>
        <mxCell id="iAl7js6x0Z8hQNSkngYc-20" value="RDS" style="text;html=1;align=center;verticalAlign=middle;resizable=0;points=[];autosize=1;strokeColor=none;fillColor=none;" vertex="1" parent="1">
          <mxGeometry x="66.99" y="810" width="43" height="26" as="geometry" />
        </mxCell>
        <mxCell id="iAl7js6x0Z8hQNSkngYc-21" style="edgeStyle=orthogonalEdgeStyle;rounded=0;orthogonalLoop=1;jettySize=auto;html=1;entryX=0.5;entryY=0;entryDx=0;entryDy=0;entryPerimeter=0;" edge="1" parent="1" source="iAl7js6x0Z8hQNSkngYc-15" target="iAl7js6x0Z8hQNSkngYc-16">
          <mxGeometry relative="1" as="geometry" />
        </mxCell>
        <mxCell id="iAl7js6x0Z8hQNSkngYc-22" style="edgeStyle=orthogonalEdgeStyle;rounded=0;orthogonalLoop=1;jettySize=auto;html=1;entryX=0.5;entryY=0;entryDx=0;entryDy=0;entryPerimeter=0;" edge="1" parent="1" source="iAl7js6x0Z8hQNSkngYc-16" target="iAl7js6x0Z8hQNSkngYc-17">
          <mxGeometry relative="1" as="geometry" />
        </mxCell>
        <mxCell id="iAl7js6x0Z8hQNSkngYc-23" value="" style="rounded=1;arcSize=10;dashed=1;strokeColor=#F59D56;fillColor=none;gradientColor=none;dashPattern=8 4;strokeWidth=2;" vertex="1" parent="1">
          <mxGeometry x="-48" y="443" width="218" height="436" as="geometry" />
        </mxCell>
        <mxCell id="iAl7js6x0Z8hQNSkngYc-24" value="" style="points=[];aspect=fixed;html=1;align=center;shadow=0;dashed=0;fillColor=#FF6A00;strokeColor=none;shape=mxgraph.alibaba_cloud.waf_web_application_firewall;" vertex="1" parent="1">
          <mxGeometry x="312.51" y="479" width="81.99" height="72" as="geometry" />
        </mxCell>
        <mxCell id="iAl7js6x0Z8hQNSkngYc-25" value="" style="outlineConnect=0;dashed=0;verticalLabelPosition=bottom;verticalAlign=top;align=center;html=1;shape=mxgraph.aws3.ec2;fillColor=#F58534;gradientColor=none;" vertex="1" parent="1">
          <mxGeometry x="321.5" y="633" width="64" height="69" as="geometry" />
        </mxCell>
        <mxCell id="iAl7js6x0Z8hQNSkngYc-26" value="" style="outlineConnect=0;dashed=0;verticalLabelPosition=bottom;verticalAlign=top;align=center;html=1;shape=mxgraph.aws3.rds;fillColor=#2E73B8;gradientColor=none;" vertex="1" parent="1">
          <mxGeometry x="320.5" y="781" width="66" height="77" as="geometry" />
        </mxCell>
        <mxCell id="iAl7js6x0Z8hQNSkngYc-27" value="Web Application &lt;br&gt;Firewall" style="text;html=1;align=center;verticalAlign=middle;resizable=0;points=[];autosize=1;strokeColor=none;fillColor=none;" vertex="1" parent="1">
          <mxGeometry x="394.5" y="494.5" width="104" height="41" as="geometry" />
        </mxCell>
        <mxCell id="iAl7js6x0Z8hQNSkngYc-28" value="EC2" style="text;html=1;align=center;verticalAlign=middle;resizable=0;points=[];autosize=1;strokeColor=none;fillColor=none;" vertex="1" parent="1">
          <mxGeometry x="394.5" y="654.5" width="41" height="26" as="geometry" />
        </mxCell>
        <mxCell id="iAl7js6x0Z8hQNSkngYc-29" value="RDS" style="text;html=1;align=center;verticalAlign=middle;resizable=0;points=[];autosize=1;strokeColor=none;fillColor=none;" vertex="1" parent="1">
          <mxGeometry x="394.5" y="810" width="43" height="26" as="geometry" />
        </mxCell>
        <mxCell id="iAl7js6x0Z8hQNSkngYc-30" style="edgeStyle=orthogonalEdgeStyle;rounded=0;orthogonalLoop=1;jettySize=auto;html=1;entryX=0.5;entryY=0;entryDx=0;entryDy=0;entryPerimeter=0;" edge="1" parent="1" source="iAl7js6x0Z8hQNSkngYc-24" target="iAl7js6x0Z8hQNSkngYc-25">
          <mxGeometry relative="1" as="geometry" />
        </mxCell>
        <mxCell id="iAl7js6x0Z8hQNSkngYc-31" style="edgeStyle=orthogonalEdgeStyle;rounded=0;orthogonalLoop=1;jettySize=auto;html=1;entryX=0.5;entryY=0;entryDx=0;entryDy=0;entryPerimeter=0;" edge="1" parent="1" source="iAl7js6x0Z8hQNSkngYc-25" target="iAl7js6x0Z8hQNSkngYc-26">
          <mxGeometry relative="1" as="geometry" />
        </mxCell>
        <mxCell id="iAl7js6x0Z8hQNSkngYc-32" value="" style="rounded=1;arcSize=10;dashed=1;strokeColor=#F59D56;fillColor=none;gradientColor=none;dashPattern=8 4;strokeWidth=2;" vertex="1" parent="1">
          <mxGeometry x="279.51" y="443" width="218" height="436" as="geometry" />
        </mxCell>
        <mxCell id="iAl7js6x0Z8hQNSkngYc-37" value="" style="outlineConnect=0;dashed=0;verticalLabelPosition=bottom;verticalAlign=top;align=center;html=1;shape=mxgraph.aws3.route_53;fillColor=#F58536;gradientColor=none;" vertex="1" parent="1">
          <mxGeometry x="621" y="544" width="70.5" height="85.5" as="geometry" />
        </mxCell>
      </root>
    </mxGraphModel>
  </diagram>
</mxfile>
